<svg id="Layer_1" data-name="Layer 1" xmlns="http://www.w3.org/2000/svg" viewBox="0 0 4464.2 384"><defs><style>.cls-1{fill:#02c18d;}.cls-2{font-size:139px;font-family:OCRAExtended, OCR A Extended;}.cls-3{letter-spacing:0.27em;}</style></defs><title>logo</title><path class="cls-1" d="M602.54,202.67C548.31,96.86,441,25.27,318,25.27S87.7,96.91,33.5,202.68a32.35,32.35,0,0,0,0,29.19C87.73,337.68,195.09,409.27,318,409.27s230.32-71.64,284.52-177.41A32.35,32.35,0,0,0,602.54,202.67ZM318,361.27a143.93,143.93,0,1,1,.14,0Zm0-240a95.55,95.55,0,0,0-25.31,3.79,47.85,47.85,0,0,1-66.9,66.9A95.8,95.8,0,1,0,318,121.27Z" transform="translate(-30.02 -25.27)"/><text class="cls-2" transform="translate(648.38 186.21)">CLARA <tspan class="cls-3" x="503.74" y="0">	</tspan><tspan x="625.45" y="0" xml:space="preserve">                                      </tspan><tspan x="163.56" y="166.8">OPTIC</tspan></text></svg>